<svg width="248" height="78" viewBox="0 0 248 78" fill="none" xmlns="http://www.w3.org/2000/svg">
<g filter="url(#filter0_d_14_1358)">
<path d="M29.8829 30.8714C20.282 26.314 6.15932 31.7501 9.50071 44.0128C12.7569 55.9629 26.8192 53.3404 31.6819 46.0662C29.6532 59.8586 26.0905 62.0059 23.955 65H46.6268C44.3296 61.798 40.1585 59.8586 37.7124 45.8772C42.6123 53.1392 57.3427 55.6567 60.5519 43.8792C63.7088 32.2936 49.4786 25.6958 40.0158 30.9405C49.0897 24.8857 52.3484 5 35.1625 5C17.8069 5 20.7027 25.2745 29.8829 30.8714Z" fill="white" stroke="white" stroke-width="1.81094"/>
<path fill-rule="evenodd" clip-rule="evenodd" d="M91.5 5C85.2299 15.3956 78.1712 25.3956 71 35C78.5092 44.6044 85.6804 54.6044 91.5 65C97.5449 54.4066 104.153 44.3077 112 35C104.378 25.3956 97.4322 15.1978 91.5 5Z" fill="white"/>
<path d="M150.114 64.8246C150.057 64.7248 149.816 64.0033 149.576 63.2211C148.059 58.2643 145.243 53.2449 140.527 47.0924C138.756 44.7809 137.088 42.734 132.579 37.336C127.357 31.0859 125.862 29.0837 124.351 26.322C123.46 24.6912 122.535 22.2098 122.231 20.6296C121.927 19.0503 121.922 16.4701 122.221 15.1265C123.434 9.66149 128.364 5.53849 134.258 5.05839C141.011 4.5084 146.755 7.86764 149.773 14.1318L150.447 15.5306L150.954 14.4256C151.708 12.7836 152.434 11.6731 153.659 10.2875C156.778 6.75963 160.49 5.03154 164.962 5.02549C166.966 5.02279 168.113 5.18651 169.82 5.71843C172.373 6.51397 174.295 7.7533 176.007 9.70786C180.467 14.8015 179.939 21.7408 174.444 30.2397C173.162 32.2222 170.85 35.1555 167.669 38.8328C164.006 43.0674 162.217 45.2195 160.385 47.5928C155.993 53.2815 153.039 58.4505 151.414 63.2907C151.166 64.0291 150.907 64.7171 150.837 64.8196C150.676 65.0578 150.247 65.0608 150.114 64.8246Z" fill="white"/>
<path fill-rule="evenodd" clip-rule="evenodd" d="M197.377 25.686C177.618 45.8779 196.987 60.5245 212.609 50.8844C209.659 61.4025 208.037 62.2301 206.246 65H223.114C220.949 62.2029 218.675 61.4025 216.371 50.9443C232.321 60.1091 249.131 44.1263 231.433 25.686C219.858 15.5587 215.364 6.31287 214.405 5C213.484 6.09387 208.059 15.7466 197.377 25.686Z" fill="white" stroke="white" stroke-width="1.14102"/>
</g>
<defs>
<filter id="filter0_d_14_1358" x="0.394483" y="0.376538" width="246.878" height="77.229" filterUnits="userSpaceOnUse" color-interpolation-filters="sRGB">
<feFlood flood-opacity="0" result="BackgroundImageFix"/>
<feColorMatrix in="SourceAlpha" type="matrix" values="0 0 0 0 0 0 0 0 0 0 0 0 0 0 0 0 0 0 127 0" result="hardAlpha"/>
<feOffset dy="4"/>
<feGaussianBlur stdDeviation="3.85"/>
<feComposite in2="hardAlpha" operator="out"/>
<feColorMatrix type="matrix" values="0 0 0 0 1 0 0 0 0 1 0 0 0 0 1 0 0 0 0.25 0"/>
<feBlend mode="normal" in2="BackgroundImageFix" result="effect1_dropShadow_14_1358"/>
<feBlend mode="normal" in="SourceGraphic" in2="effect1_dropShadow_14_1358" result="shape"/>
</filter>
</defs>
</svg>
